<svg width="121" height="41" viewBox="0 0 121 41" fill="none" xmlns="http://www.w3.org/2000/svg">
<g clip-path="url(#clip0_1_64)">
<path d="M110.655 0.381539H10.0547C9.688 0.381539 9.3257 0.381539 8.95997 0.383539C8.65382 0.385539 8.35011 0.391349 8.04102 0.396239C7.36953 0.40414 6.69963 0.463215 6.03712 0.572949C5.37554 0.685071 4.73469 0.896454 4.13624 1.19995C3.53852 1.50601 2.99236 1.90371 2.51759 2.37861C2.04032 2.85218 1.64248 3.39955 1.33937 3.9997C1.03542 4.59865 0.82466 5.24048 0.71437 5.90302C0.60303 6.56472 0.543118 7.23406 0.53517 7.90502C0.52589 8.21162 0.52491 8.51924 0.52002 8.82588V31.9401C0.52491 32.2506 0.52589 32.5514 0.53517 32.862C0.54312 33.533 0.603033 34.2023 0.71437 34.8639C0.824355 35.5269 1.03513 36.1691 1.33937 36.7682C1.64235 37.3664 2.04024 37.9116 2.51759 38.3825C2.99056 38.8596 3.53707 39.2575 4.13624 39.5612C4.73469 39.8655 5.37547 40.0782 6.03712 40.192C6.69974 40.3009 7.36958 40.36 8.04102 40.3688C8.35011 40.3756 8.65382 40.3795 8.95997 40.3795C9.32569 40.3815 9.68802 40.3815 10.0547 40.3815H110.655C111.014 40.3815 111.379 40.3815 111.739 40.3795C112.043 40.3795 112.356 40.3756 112.661 40.3688C113.331 40.3605 113.999 40.3014 114.661 40.192C115.324 40.0774 115.968 39.8648 116.569 39.5612C117.168 39.2573 117.714 38.8594 118.186 38.3825C118.662 37.9098 119.061 37.365 119.368 36.7682C119.67 36.1686 119.878 35.5265 119.987 34.8639C120.098 34.2022 120.16 33.533 120.172 32.862C120.176 32.5514 120.176 32.2506 120.176 31.9401C120.184 31.5768 120.184 31.2155 120.184 30.8463V9.91767C120.184 9.55146 120.184 9.18818 120.176 8.82588C120.176 8.51924 120.176 8.21162 120.172 7.90498C120.16 7.23396 120.098 6.56477 119.987 5.90298C119.878 5.24082 119.669 4.59904 119.368 3.99966C118.75 2.79673 117.772 1.81756 116.569 1.19986C115.968 0.897106 115.324 0.685779 114.661 0.572859C114 0.462641 113.331 0.403546 112.661 0.396099C112.356 0.391219 112.043 0.385359 111.739 0.383409C111.379 0.381409 111.014 0.381539 110.655 0.381539Z" fill="black"/>
<path d="M8.96489 39.5064C8.66021 39.5064 8.36289 39.5025 8.0606 39.4957C7.43438 39.4875 6.80962 39.433 6.19146 39.3326C5.61505 39.2333 5.05666 39.0487 4.53472 38.7847C4.01756 38.5229 3.54587 38.1797 3.13772 37.7681C2.72366 37.3614 2.37893 36.8897 2.11721 36.3716C1.8526 35.8502 1.66947 35.2913 1.57421 34.7144C1.47133 34.0945 1.41567 33.4677 1.40771 32.8394C1.40137 32.6285 1.39307 31.9263 1.39307 31.9263V8.82575C1.39307 8.82575 1.40191 8.13434 1.40776 7.93121C1.41538 7.30389 1.47072 6.67806 1.57329 6.05914C1.66873 5.48066 1.85199 4.92016 2.11675 4.39704C2.37751 3.87935 2.72032 3.40727 3.13189 2.99909C3.54299 2.58703 4.01619 2.24201 4.53423 1.97662C5.05497 1.7135 5.6123 1.53014 6.18755 1.43268C6.80774 1.33124 7.43467 1.2764 8.06306 1.26862L8.96538 1.25641H111.734L112.647 1.26911C113.27 1.27651 113.891 1.33086 114.505 1.4317C115.086 1.53038 115.65 1.71502 116.176 1.97955C117.214 2.51439 118.059 3.36057 118.591 4.39948C118.852 4.91899 119.032 5.47492 119.127 6.0484C119.23 6.6724 119.288 7.30315 119.3 7.93561C119.303 8.21881 119.303 8.52301 119.303 8.82575C119.311 9.20075 119.311 9.55768 119.311 9.91754V30.8462C119.311 31.2095 119.311 31.564 119.303 31.9214C119.303 32.2466 119.303 32.5445 119.299 32.8511C119.288 33.4723 119.231 34.0918 119.128 34.7046C119.035 35.2857 118.853 35.8489 118.588 36.3746C118.325 36.887 117.982 37.3547 117.573 37.7603C117.164 38.1741 116.692 38.5194 116.173 38.7828C115.648 39.0488 115.086 39.2341 114.505 39.3326C113.887 39.4336 113.262 39.4881 112.636 39.4957C112.343 39.5025 112.037 39.5064 111.739 39.5064L110.655 39.5084L8.96489 39.5064Z" fill="white"/>
<path d="M25.5167 20.2707C25.5279 19.4028 25.7584 18.5517 26.1869 17.7968C26.6153 17.0419 27.2278 16.4076 27.9673 15.953C27.4975 15.2821 26.8778 14.73 26.1573 14.3405C25.4368 13.951 24.6355 13.7349 23.8169 13.7093C22.0706 13.526 20.3777 14.7542 19.4879 14.7542C18.5808 14.7542 17.2107 13.7275 15.7354 13.7578C14.7811 13.7886 13.8511 14.0661 13.0359 14.5633C12.2208 15.0604 11.5483 15.7602 11.084 16.5945C9.07293 20.0765 10.573 25.1939 12.4995 28.0085C13.4634 29.3867 14.5899 30.9263 16.0639 30.8717C17.5063 30.8118 18.045 29.9519 19.7861 29.9519C21.5111 29.9519 22.0165 30.8717 23.5204 30.837C25.0682 30.8118 26.0433 29.4526 26.9734 28.0613C27.6659 27.0793 28.1989 25.9939 28.5524 24.8454C27.6532 24.4651 26.8858 23.8285 26.346 23.015C25.8062 22.2015 25.5177 21.2471 25.5167 20.2707Z" fill="black"/>
<path d="M22.6761 11.8582C23.52 10.8451 23.9358 9.54301 23.8351 8.22833C22.5458 8.36375 21.3549 8.97995 20.4996 9.95415C20.0814 10.4301 19.7611 10.9838 19.557 11.5835C19.3529 12.1833 19.2691 12.8174 19.3102 13.4497C19.9551 13.4563 20.5931 13.3165 21.1761 13.0409C21.7591 12.7652 22.272 12.3608 22.6761 11.8582Z" fill="black"/>
<path d="M42.8218 27.521H38.0884L36.9517 30.8775H34.9468L39.4302 18.4595H41.5132L45.9966 30.8775H43.9575L42.8218 27.521ZM38.5786 25.9722H42.3306L40.481 20.5249H40.4292L38.5786 25.9722Z" fill="black"/>
<path d="M55.6792 26.3511C55.6792 29.1646 54.1734 30.9722 51.9009 30.9722C51.3253 31.0023 50.7528 30.8697 50.249 30.5896C49.7452 30.3094 49.3304 29.8931 49.0523 29.3882H49.0093V33.8726H47.1509V21.8238H48.9497V23.3296H48.9839C49.2748 22.8271 49.6966 22.413 50.2042 22.1311C50.7118 21.8493 51.2864 21.7103 51.8667 21.729C54.1646 21.729 55.6792 23.5454 55.6792 26.3511ZM53.7691 26.3511C53.7691 24.5181 52.8218 23.313 51.3765 23.313C49.9566 23.313 49.0015 24.5435 49.0015 26.3511C49.0015 28.1753 49.9566 29.397 51.3765 29.397C52.8218 29.397 53.7691 28.2007 53.7691 26.3511Z" fill="black"/>
<path d="M65.6446 26.3511C65.6446 29.1646 64.1382 30.9722 61.8657 30.9722C61.2901 31.0023 60.7176 30.8697 60.2138 30.5896C59.71 30.3094 59.2953 29.8931 59.0171 29.3882H58.9741V33.8726H57.1157V21.8238H58.9146V23.3296H58.9487C59.2397 22.8271 59.6614 22.413 60.169 22.1311C60.6767 21.8493 61.2512 21.7103 61.8315 21.729C64.1294 21.729 65.6446 23.5454 65.6446 26.3511ZM63.7339 26.3511C63.7339 24.5181 62.7866 23.313 61.3413 23.313C59.9214 23.313 58.9663 24.5435 58.9663 26.3511C58.9663 28.1753 59.9214 29.397 61.3413 29.397C62.7866 29.397 63.7339 28.2007 63.7339 26.3511Z" fill="black"/>
<path d="M72.2295 27.4175C72.3672 28.649 73.5635 29.4575 75.1983 29.4575C76.7647 29.4575 77.8916 28.6489 77.8916 27.5386C77.8916 26.5747 77.212 25.9976 75.6026 25.6021L73.9932 25.2144C71.7129 24.6636 70.6544 23.5972 70.6544 21.8667C70.6544 19.7241 72.5215 18.2524 75.1719 18.2524C77.7969 18.2524 79.5958 19.7241 79.6563 21.8667H77.7803C77.668 20.6274 76.6436 19.8794 75.1465 19.8794C73.6495 19.8794 72.625 20.6362 72.625 21.7378C72.625 22.6157 73.2793 23.1323 74.8799 23.5278L76.2481 23.8637C78.7959 24.4663 79.8536 25.4897 79.8536 27.3061C79.8536 29.6294 78.0039 31.0844 75.0605 31.0844C72.3066 31.0844 70.4473 29.6635 70.3271 27.4174L72.2295 27.4175Z" fill="black"/>
<path d="M83.8662 19.6812V21.8238H85.5879V23.2955H83.8662V28.2867C83.8662 29.0621 84.2109 29.4234 84.9678 29.4234C85.1722 29.4198 85.3762 29.4055 85.5791 29.3804V30.8433C85.2388 30.9069 84.893 30.9357 84.5469 30.9292C82.7139 30.9292 81.999 30.2408 81.999 28.4849V23.2955H80.6826V21.8238H81.999V19.6812H83.8662Z" fill="black"/>
<path d="M86.584 26.3511C86.584 23.5025 88.2617 21.7125 90.8779 21.7125C93.5029 21.7125 95.1729 23.5025 95.1729 26.3511C95.1729 29.2076 93.5117 30.9898 90.8779 30.9898C88.2451 30.9898 86.584 29.2076 86.584 26.3511ZM93.2793 26.3511C93.2793 24.397 92.3838 23.2437 90.8779 23.2437C89.3721 23.2437 88.4766 24.4058 88.4766 26.3511C88.4766 28.313 89.3721 29.4576 90.8779 29.4576C92.3838 29.4576 93.2793 28.313 93.2793 26.3511Z" fill="black"/>
<path d="M96.7051 21.8238H98.4776V23.3648H98.5206C98.6405 22.8835 98.9224 22.4582 99.319 22.1603C99.7156 21.8624 100.203 21.7101 100.698 21.7291C100.912 21.7283 101.126 21.7516 101.335 21.7984V23.5367C101.065 23.4541 100.783 23.4161 100.5 23.4244C100.23 23.4134 99.9609 23.461 99.711 23.5639C99.4612 23.6668 99.2366 23.8225 99.0526 24.0204C98.8686 24.2183 98.7296 24.4537 98.6452 24.7103C98.5608 24.967 98.5329 25.2389 98.5635 25.5074V30.8775H96.7051L96.7051 21.8238Z" fill="black"/>
<path d="M109.903 28.2183C109.653 29.8619 108.053 30.9898 106.005 30.9898C103.371 30.9898 101.736 29.2252 101.736 26.3941C101.736 23.5543 103.38 21.7125 105.927 21.7125C108.432 21.7125 110.007 23.4332 110.007 26.1783V26.815H103.612V26.9273C103.583 27.2605 103.625 27.5962 103.735 27.912C103.845 28.2278 104.021 28.5166 104.251 28.7592C104.482 29.0017 104.761 29.1925 105.071 29.3188C105.381 29.4451 105.714 29.5041 106.048 29.4918C106.487 29.5329 106.928 29.4312 107.304 29.2017C107.681 28.9723 107.974 28.6274 108.139 28.2183L109.903 28.2183ZM103.621 25.5162H108.147C108.164 25.2166 108.119 24.9168 108.014 24.6356C107.909 24.3543 107.748 24.0978 107.539 23.882C107.331 23.6663 107.08 23.4959 106.802 23.3817C106.525 23.2675 106.227 23.2119 105.927 23.2183C105.624 23.2165 105.324 23.2747 105.044 23.3894C104.764 23.5041 104.51 23.6732 104.295 23.8868C104.081 24.1005 103.911 24.3545 103.795 24.6341C103.679 24.9138 103.62 25.2135 103.621 25.5162Z" fill="black"/>
<path d="M38.3462 9.11242C38.7358 9.08446 39.1268 9.14332 39.4909 9.28476C39.855 9.42619 40.1832 9.64667 40.4518 9.93029C40.7203 10.2139 40.9226 10.5536 41.044 10.9249C41.1654 11.2962 41.2029 11.6897 41.1538 12.0773C41.1538 13.9835 40.1235 15.0793 38.3462 15.0793H36.1909V9.11242H38.3462ZM37.1177 14.2354H38.2427C38.5211 14.2521 38.7997 14.2064 39.0582 14.1018C39.3168 13.9972 39.5487 13.8362 39.7372 13.6307C39.9257 13.4251 40.066 13.1801 40.1479 12.9135C40.2297 12.6469 40.2511 12.3653 40.2104 12.0894C40.2481 11.8146 40.2246 11.5348 40.1415 11.2702C40.0584 11.0055 39.9177 10.7625 39.7297 10.5586C39.5416 10.3546 39.3108 10.1948 39.0537 10.0906C38.7966 9.98635 38.5197 9.94026 38.2427 9.95563H37.1177V14.2354Z" fill="black"/>
<path d="M42.2007 12.8258C42.1724 12.5298 42.2063 12.2313 42.3001 11.9492C42.3939 11.6671 42.5457 11.4078 42.7456 11.1878C42.9456 10.9678 43.1893 10.7921 43.4611 10.6718C43.733 10.5515 44.027 10.4894 44.3243 10.4894C44.6215 10.4894 44.9155 10.5515 45.1874 10.6718C45.4592 10.7921 45.7029 10.9678 45.9029 11.1878C46.1028 11.4078 46.2546 11.6671 46.3484 11.9492C46.4422 12.2313 46.4761 12.5298 46.4478 12.8258C46.4766 13.122 46.4432 13.421 46.3496 13.7035C46.256 13.986 46.1043 14.2458 45.9043 14.4662C45.7044 14.6867 45.4605 14.8628 45.1883 14.9833C44.9162 15.1039 44.6219 15.1661 44.3243 15.1661C44.0266 15.1661 43.7323 15.1039 43.4602 14.9833C43.1881 14.8628 42.9442 14.6867 42.7442 14.4662C42.5442 14.2458 42.3925 13.986 42.2989 13.7035C42.2053 13.421 42.1719 13.122 42.2007 12.8258ZM45.5337 12.8258C45.5337 11.8497 45.0952 11.2789 44.3257 11.2789C43.5533 11.2789 43.1187 11.8497 43.1187 12.8258C43.1187 13.8097 43.5533 14.3761 44.3257 14.3761C45.0953 14.376 45.5337 13.8057 45.5337 12.8258Z" fill="black"/>
<path d="M52.0933 15.0792H51.1714L50.2407 11.7628H50.1704L49.2437 15.0792H48.3306L47.0894 10.5762H47.9907L48.7974 14.0122H48.8638L49.7896 10.5762H50.6421L51.5679 14.0122H51.6382L52.4409 10.5762H53.3296L52.0933 15.0792Z" fill="black"/>
<path d="M54.3735 10.5762H55.229V11.2915H55.2954C55.4081 11.0346 55.5981 10.8193 55.8389 10.6754C56.0798 10.5316 56.3596 10.4666 56.6392 10.4893C56.8583 10.4728 57.0783 10.5059 57.2829 10.586C57.4875 10.6661 57.6714 10.7912 57.8211 10.952C57.9708 11.1128 58.0824 11.3053 58.1476 11.5151C58.2128 11.7249 58.2299 11.9467 58.1978 12.1641V15.0791H57.3091V12.3873C57.3091 11.6636 56.9946 11.3038 56.3374 11.3038C56.1886 11.2968 56.0401 11.3221 55.9021 11.378C55.764 11.4338 55.6397 11.5188 55.5376 11.6272C55.4354 11.7356 55.358 11.8648 55.3104 12.0059C55.2629 12.147 55.2464 12.2968 55.2622 12.4449V15.0791H54.3735L54.3735 10.5762Z" fill="black"/>
<path d="M59.6138 8.81842H60.5024V15.0792H59.6138V8.81842Z" fill="black"/>
<path d="M61.7378 12.8258C61.7095 12.5298 61.7434 12.2313 61.8373 11.9492C61.9311 11.6671 62.0829 11.4077 62.2829 11.1878C62.4828 10.9678 62.7266 10.792 62.9984 10.6717C63.2703 10.5514 63.5643 10.4893 63.8616 10.4893C64.1589 10.4893 64.4529 10.5514 64.7247 10.6717C64.9966 10.792 65.2403 10.9678 65.4403 11.1878C65.6403 11.4077 65.7921 11.6671 65.8859 11.9492C65.9798 12.2313 66.0136 12.5298 65.9854 12.8258C66.0142 13.122 65.9807 13.421 65.8871 13.7035C65.7935 13.986 65.6418 14.2459 65.4417 14.4663C65.2417 14.6867 64.9978 14.8628 64.7257 14.9833C64.4536 15.1039 64.1592 15.1661 63.8616 15.1661C63.564 15.1661 63.2696 15.1039 62.9975 14.9833C62.7253 14.8628 62.4814 14.6867 62.2814 14.4663C62.0814 14.2459 61.9297 13.986 61.8361 13.7035C61.7425 13.421 61.709 13.122 61.7378 12.8258ZM65.0708 12.8258C65.0708 11.8497 64.6323 11.2789 63.8628 11.2789C63.0903 11.2789 62.6558 11.8497 62.6558 12.8258C62.6558 13.8097 63.0904 14.3761 63.8628 14.3761C64.6323 14.3761 65.0708 13.8058 65.0708 12.8258Z" fill="black"/>
<path d="M66.9209 13.8057C66.9209 12.9952 67.5244 12.5279 68.5957 12.4615L69.8154 12.3912V12.0025C69.8154 11.5269 69.501 11.2584 68.8936 11.2584C68.3975 11.2584 68.0537 11.4405 67.9551 11.7588H67.0947C67.1855 10.9854 67.9131 10.4893 68.9346 10.4893C70.0635 10.4893 70.7002 11.0513 70.7002 12.0025V15.0792H69.8447V14.4463H69.7744C69.6317 14.6733 69.4313 14.8584 69.1937 14.9826C68.956 15.1068 68.6897 15.1657 68.4219 15.1533C68.2328 15.173 68.0418 15.1528 67.861 15.0941C67.6803 15.0354 67.5138 14.9395 67.3724 14.8126C67.231 14.6856 67.1177 14.5304 67.04 14.357C66.9622 14.1836 66.9216 13.9958 66.9209 13.8057ZM69.8154 13.4209V13.0445L68.7158 13.1148C68.0957 13.1563 67.8144 13.3672 67.8144 13.7642C67.8144 14.1695 68.166 14.4053 68.6494 14.4053C68.7911 14.4197 68.9342 14.4054 69.0702 14.3633C69.2062 14.3212 69.3323 14.2522 69.4411 14.1603C69.5499 14.0685 69.6391 13.9557 69.7034 13.8287C69.7677 13.7016 69.8058 13.563 69.8154 13.4209Z" fill="black"/>
<path d="M71.8682 12.8258C71.8682 11.4029 72.5996 10.5015 73.7373 10.5015C74.0187 10.4886 74.298 10.556 74.5425 10.6959C74.7871 10.8358 74.9867 11.0424 75.1182 11.2915H75.1846V8.81842H76.0732V15.0792H75.2217V14.3677H75.1514C75.0098 14.6152 74.8032 14.8193 74.5539 14.9577C74.3046 15.0962 74.0223 15.1639 73.7373 15.1534C72.5918 15.1534 71.8682 14.252 71.8682 12.8258ZM72.7862 12.8258C72.7862 13.7808 73.2364 14.3555 73.9893 14.3555C74.7383 14.3555 75.2012 13.7726 75.2012 12.8297C75.2012 11.8912 74.7334 11.2999 73.9893 11.2999C73.2412 11.2999 72.7862 11.8785 72.7862 12.8258Z" fill="black"/>
<path d="M79.75 12.8258C79.7217 12.5298 79.7556 12.2313 79.8494 11.9492C79.9433 11.6671 80.095 11.4078 80.295 11.1878C80.4949 10.9678 80.7386 10.7921 81.0105 10.6718C81.2823 10.5515 81.5763 10.4894 81.8736 10.4894C82.1708 10.4894 82.4648 10.5515 82.7367 10.6718C83.0085 10.7921 83.2522 10.9678 83.4522 11.1878C83.6521 11.4078 83.8039 11.6671 83.8977 11.9492C83.9916 12.2313 84.0254 12.5298 83.9971 12.8258C84.026 13.122 83.9925 13.421 83.8989 13.7035C83.8053 13.986 83.6536 14.2458 83.4537 14.4662C83.2537 14.6867 83.0098 14.8628 82.7376 14.9833C82.4655 15.1039 82.1712 15.1661 81.8736 15.1661C81.5759 15.1661 81.2816 15.1039 81.0095 14.9833C80.7374 14.8628 80.4935 14.6867 80.2935 14.4662C80.0935 14.2458 79.9418 13.986 79.8482 13.7035C79.7546 13.421 79.7212 13.122 79.75 12.8258ZM83.083 12.8258C83.083 11.8497 82.6446 11.2789 81.875 11.2789C81.1026 11.2789 80.668 11.8497 80.668 12.8258C80.668 13.8097 81.1026 14.3761 81.875 14.3761C82.6446 14.376 83.083 13.8057 83.083 12.8258Z" fill="black"/>
<path d="M85.1895 10.5762H86.0449V11.2915H86.1113C86.224 11.0346 86.414 10.8193 86.6549 10.6754C86.8957 10.5316 87.1755 10.4666 87.4551 10.4893C87.6742 10.4728 87.8942 10.5059 88.0988 10.586C88.3034 10.6661 88.4873 10.7912 88.637 10.952C88.7867 11.1128 88.8983 11.3053 88.9635 11.5151C89.0287 11.7249 89.0458 11.9467 89.0137 12.1641V15.0791H88.125V12.3873C88.125 11.6636 87.8106 11.3038 87.1533 11.3038C87.0046 11.2968 86.8561 11.3221 86.718 11.378C86.58 11.4338 86.4556 11.5188 86.3535 11.6272C86.2514 11.7356 86.1739 11.8648 86.1263 12.0059C86.0788 12.147 86.0624 12.2968 86.0781 12.4449V15.0791H85.1895V10.5762Z" fill="black"/>
<path d="M94.0352 9.45514V10.5967H95.0107V11.3453H94.0352V13.6607C94.0352 14.1324 94.2295 14.3389 94.6719 14.3389C94.7851 14.3386 94.8983 14.3317 95.0107 14.3184V15.0586C94.8512 15.0872 94.6895 15.1024 94.5273 15.1041C93.5391 15.1041 93.1455 14.7564 93.1455 13.8882V11.3452H92.4307V10.5967H93.1455V9.45514H94.0352Z" fill="black"/>
<path d="M96.2246 8.81842H97.1055V11.2999H97.1758C97.2939 11.0405 97.4891 10.824 97.7348 10.6796C97.9805 10.5353 98.2647 10.4702 98.5488 10.4932C98.7667 10.4814 98.9846 10.5178 99.1869 10.5998C99.3892 10.6818 99.5709 10.8075 99.719 10.9679C99.8671 11.1282 99.978 11.3192 100.044 11.5274C100.11 11.7355 100.129 11.9556 100.1 12.1719V15.0792H99.21V12.3912C99.21 11.6719 98.875 11.3077 98.2471 11.3077C98.0944 11.2951 97.9407 11.3161 97.797 11.3692C97.6532 11.4222 97.5227 11.5061 97.4147 11.6148C97.3067 11.7236 97.2238 11.8546 97.1718 11.9987C97.1197 12.1428 97.0997 12.2966 97.1133 12.4493V15.0792H96.2246L96.2246 8.81842Z" fill="black"/>
<path d="M105.281 13.8634C105.161 14.2749 104.899 14.6309 104.542 14.869C104.186 15.1072 103.757 15.2123 103.33 15.1661C103.033 15.1739 102.739 15.1171 102.466 14.9996C102.194 14.882 101.95 14.7066 101.752 14.4855C101.554 14.2643 101.407 14.0028 101.32 13.719C101.233 13.4351 101.209 13.1359 101.25 12.8419C101.211 12.547 101.235 12.2471 101.321 11.9624C101.408 11.6777 101.554 11.4149 101.751 11.1919C101.948 10.9688 102.191 10.7906 102.462 10.6694C102.734 10.5482 103.029 10.4868 103.326 10.4893C104.579 10.4893 105.335 11.3453 105.335 12.7593V13.0694H102.155V13.1192C102.141 13.2845 102.162 13.4508 102.216 13.6075C102.27 13.7643 102.357 13.908 102.47 14.0295C102.583 14.1509 102.72 14.2474 102.872 14.3128C103.024 14.3782 103.189 14.4111 103.355 14.4092C103.567 14.4347 103.782 14.3965 103.973 14.2993C104.164 14.2021 104.322 14.0503 104.426 13.8633L105.281 13.8634ZM102.155 12.4122H104.43C104.441 12.2611 104.42 12.1093 104.369 11.9665C104.318 11.8238 104.238 11.6933 104.134 11.5835C104.029 11.4736 103.903 11.3868 103.763 11.3286C103.623 11.2705 103.473 11.2422 103.321 11.2457C103.168 11.2438 103.015 11.2726 102.873 11.3306C102.73 11.3885 102.601 11.4744 102.492 11.5831C102.384 11.6918 102.298 11.8212 102.24 11.9635C102.182 12.1059 102.153 12.2585 102.155 12.4122Z" fill="black"/>
</g>
<defs>
<clipPath id="clip0_1_64">
<rect width="119.664" height="40" fill="white" transform="translate(0.52002 0.381409)"/>
</clipPath>
</defs>
</svg>
