<svg width="33" height="33" viewBox="0 0 33 33" fill="none" xmlns="http://www.w3.org/2000/svg">
<g clip-path="url(#clip0_1_123)">
<path d="M16.3521 10.3813V16.3813L21.3521 19.3813" stroke="#ABFF77" stroke-width="2" stroke-linecap="round" stroke-linejoin="round"/>
<path d="M23.3521 13.3813H28.3521V8.38135" stroke="#ABFF77" stroke-width="2" stroke-linecap="round" stroke-linejoin="round"/>
<path d="M23.9021 24.3813C22.3297 25.8651 20.3548 26.8526 18.2243 27.2205C16.0938 27.5883 13.9022 27.3202 11.9232 26.4496C9.94427 25.579 8.26574 24.1445 7.09737 22.3254C5.929 20.5063 5.3226 18.3832 5.35394 16.2214C5.38528 14.0596 6.05297 11.955 7.27358 10.1705C8.49419 8.38606 10.2136 7.00085 12.217 6.18797C14.2203 5.37509 16.4188 5.17061 18.5378 5.60005C20.6567 6.0295 22.6021 7.07384 24.1309 8.60259C25.6021 10.0926 26.8171 11.4976 28.3521 13.3813" stroke="#ABFF77" stroke-width="2" stroke-linecap="round" stroke-linejoin="round"/>
</g>
<defs>
<clipPath id="clip0_1_123">
<rect width="32" height="32" fill="white" transform="translate(0.352051 0.381348)"/>
</clipPath>
</defs>
</svg>
