<svg width="87" height="105" viewBox="0 0 87 105" fill="none" xmlns="http://www.w3.org/2000/svg">
<g filter="url(#filter0_dddd_1_7)">
<rect x="11.3521" y="2" width="64" height="64" rx="14" fill="url(#paint0_linear_1_7)"/>
<rect x="12.3521" y="3" width="62" height="62" rx="13" stroke="url(#paint1_linear_1_7)" stroke-opacity="0.7" stroke-width="2"/>
<path d="M30.2966 37.1855C30.2966 37.3602 30.1549 37.5018 29.9802 37.5018H28.8219C28.6472 37.5018 28.5055 37.3602 28.5055 37.1855V33.5723C28.5055 33.0199 28.4075 32.6144 28.2115 32.356C28.0244 32.0887 27.7615 31.9551 27.4229 31.9551C27.0754 31.9551 26.7413 32.0932 26.4205 32.3694C26.1195 32.6274 25.9014 32.9643 25.7665 33.3801C25.7568 33.41 25.7522 33.4412 25.7522 33.4726V37.1855C25.7522 37.3602 25.6106 37.5018 25.4359 37.5018H24.2776C24.1028 37.5018 23.9612 37.3602 23.9612 37.1855V33.5723C23.9612 33.0109 23.8632 32.6011 23.6672 32.3427C23.48 32.0843 23.2172 31.9551 22.8786 31.9551C22.5311 31.9551 22.1969 32.0887 21.8762 32.356C21.5751 32.6141 21.3571 32.951 21.2221 33.3668C21.2124 33.3966 21.2079 33.4279 21.2079 33.4593V37.1855C21.2079 37.3602 21.0662 37.5018 20.8915 37.5018H19.7332C19.5585 37.5018 19.4169 37.3602 19.4169 37.1855V30.8145C19.4169 30.6398 19.5585 30.4982 19.7332 30.4982H20.7178C20.8925 30.4982 21.0341 30.6398 21.0341 30.8145V31.7947C21.3014 31.3402 21.6579 30.9927 22.1034 30.7521C22.5489 30.5027 23.0613 30.3779 23.6404 30.3779C24.2196 30.3779 24.6696 30.5205 24.9904 30.8056C25.3201 31.0907 25.5295 31.4427 25.6186 31.8615C25.9037 31.3803 26.2646 31.015 26.7012 30.7655C27.1467 30.5071 27.6457 30.3779 28.1981 30.3779C28.6347 30.3779 28.9867 30.4581 29.254 30.6185C29.5303 30.77 29.7441 30.9794 29.8956 31.2467C30.0471 31.5051 30.1495 31.7991 30.203 32.1288C30.2654 32.4585 30.2966 32.7926 30.2966 33.1312V37.1855Z" fill="white"/>
<path d="M35.5047 37.6355C34.9433 37.6355 34.4354 37.5419 33.981 37.3548C33.5266 37.1588 33.139 36.8959 32.8182 36.5662C32.4974 36.2276 32.2479 35.8445 32.0697 35.4168C31.9004 34.9802 31.8158 34.5213 31.8158 34.0401C31.8158 33.3718 31.9628 32.7615 32.2568 32.209C32.5598 31.6566 32.9875 31.2155 33.5399 30.8858C34.1013 30.5472 34.7607 30.3779 35.5181 30.3779C36.2844 30.3779 36.9393 30.5472 37.4828 30.8858C38.0263 31.2155 38.4407 31.6566 38.7258 32.209C39.0199 32.7525 39.1669 33.3406 39.1669 33.9733C39.1669 34.0802 39.1624 34.1916 39.1535 34.3074C39.1408 34.4604 39.0116 34.5747 38.8581 34.5747H33.7137C33.7493 34.9312 33.8518 35.243 34.0211 35.5103C34.1993 35.7777 34.4221 35.9826 34.6894 36.1252C34.9656 36.2588 35.2596 36.3256 35.5715 36.3256C35.9279 36.3256 36.2621 36.241 36.5739 36.0717C36.7965 35.948 36.9698 35.7986 37.0937 35.6235C37.1865 35.4923 37.3457 35.4092 37.5006 35.4523L38.4036 35.7036C38.5928 35.7562 38.6895 35.9678 38.5817 36.1319C38.4333 36.3577 38.2497 36.5649 38.0308 36.7533C37.7189 37.0296 37.3492 37.2479 36.9214 37.4083C36.4937 37.5597 36.0215 37.6355 35.5047 37.6355ZM33.6736 33.4387H37.3358C37.3001 33.0822 37.1977 32.7748 37.0284 32.5164C36.868 32.2491 36.6541 32.0442 36.3868 31.9016C36.1195 31.7501 35.821 31.6744 35.4913 31.6744C35.1705 31.6744 34.8765 31.7501 34.6092 31.9016C34.3508 32.0442 34.1369 32.2491 33.9676 32.5164C33.8072 32.7748 33.7092 33.0822 33.6736 33.4387Z" fill="white"/>
<path d="M51.5386 37.1855C51.5386 37.3602 51.397 37.5018 51.2223 37.5018H50.064C49.8892 37.5018 49.7476 37.3602 49.7476 37.1855V33.5723C49.7476 33.0199 49.6496 32.6144 49.4536 32.356C49.2664 32.0887 49.0036 31.9551 48.665 31.9551C48.3175 31.9551 47.9833 32.0932 47.6626 32.3694C47.3615 32.6274 47.1435 32.9643 47.0085 33.3801C46.9988 33.41 46.9943 33.4412 46.9943 33.4726V37.1855C46.9943 37.3602 46.8526 37.5018 46.6779 37.5018H45.5196C45.3449 37.5018 45.2033 37.3602 45.2033 37.1855V33.5723C45.2033 33.0109 45.1053 32.6011 44.9092 32.3427C44.7221 32.0843 44.4593 31.9551 44.1207 31.9551C43.7731 31.9551 43.439 32.0887 43.1182 32.356C42.8172 32.6141 42.5992 32.951 42.4642 33.3668C42.4545 33.3966 42.4499 33.4279 42.4499 33.4593V37.1855C42.4499 37.3602 42.3083 37.5018 42.1336 37.5018H40.9753C40.8006 37.5018 40.6589 37.3602 40.6589 37.1855V30.8145C40.6589 30.6398 40.8006 30.4982 40.9753 30.4982H41.9598C42.1346 30.4982 42.2762 30.6398 42.2762 30.8145V31.7947C42.5435 31.3402 42.8999 30.9927 43.3454 30.7521C43.791 30.5027 44.3033 30.3779 44.8825 30.3779C45.4617 30.3779 45.9117 30.5205 46.2324 30.8056C46.5621 31.0907 46.7715 31.4427 46.8606 31.8615C47.1458 31.3803 47.5066 31.015 47.9432 30.7655C48.3888 30.5071 48.8878 30.3779 49.4402 30.3779C49.8768 30.3779 50.2288 30.4581 50.4961 30.6185C50.7723 30.77 50.9862 30.9794 51.1376 31.2467C51.2891 31.5051 51.3916 31.7991 51.4451 32.1288C51.5074 32.4585 51.5386 32.7926 51.5386 33.1312V37.1855Z" fill="white"/>
<path d="M56.7468 37.6355C56.1854 37.6355 55.6775 37.5419 55.2231 37.3548C54.7686 37.1588 54.381 36.8959 54.0602 36.5662C53.7395 36.2276 53.49 35.8445 53.3118 35.4168C53.1425 34.9802 53.0578 34.5213 53.0578 34.0401C53.0578 33.3718 53.2048 32.7615 53.4989 32.209C53.8018 31.6566 54.2295 31.2155 54.782 30.8858C55.3434 30.5472 56.0027 30.3779 56.7601 30.3779C57.5264 30.3779 58.1813 30.5472 58.7249 30.8858C59.2684 31.2155 59.6828 31.6566 59.9679 32.209C60.2619 32.7525 60.409 33.3406 60.409 33.9733C60.409 34.0802 60.4045 34.1916 60.3956 34.3074C60.3828 34.4604 60.2537 34.5747 60.1002 34.5747H54.9558C54.9914 34.9312 55.0939 35.243 55.2632 35.5103C55.4414 35.7777 55.6641 35.9826 55.9314 36.1252C56.2077 36.2588 56.5017 36.3256 56.8136 36.3256C57.17 36.3256 57.5041 36.241 57.816 36.0717C58.0386 35.948 58.2118 35.7986 58.3357 35.6235C58.4286 35.4923 58.5878 35.4092 58.7427 35.4523L59.6457 35.7036C59.8349 35.7562 59.9316 35.9678 59.8237 36.1319C59.6754 36.3577 59.4918 36.5649 59.2729 36.7533C58.961 37.0296 58.5912 37.2479 58.1635 37.4083C57.7358 37.5597 57.2636 37.6355 56.7468 37.6355ZM54.9157 33.4387H58.5779C58.5422 33.0822 58.4397 32.7748 58.2704 32.5164C58.1101 32.2491 57.8962 32.0442 57.6289 31.9016C57.3616 31.7501 57.0631 31.6744 56.7334 31.6744C56.4126 31.6744 56.1186 31.7501 55.8513 31.9016C55.5928 32.0442 55.379 32.2491 55.2097 32.5164C55.0493 32.7748 54.9513 33.0822 54.9157 33.4387Z" fill="white"/>
<path d="M64.4806 37.6355C63.8836 37.6355 63.3133 37.5375 62.7698 37.3414C62.306 37.1742 61.8974 36.9388 61.5439 36.6353C61.4359 36.5426 61.414 36.3864 61.4827 36.2619L61.8256 35.6404C61.9207 35.468 62.148 35.4241 62.3083 35.5385C62.6232 35.7632 62.9329 35.9365 63.2376 36.0583C63.6475 36.2187 64.0395 36.2989 64.4138 36.2989C64.7613 36.2989 65.0375 36.2365 65.2424 36.1118C65.4563 35.987 65.5632 35.7999 65.5632 35.5504C65.5632 35.3811 65.5053 35.2519 65.3895 35.1628C65.2736 35.0648 65.1043 34.9802 64.8816 34.9089C64.6677 34.8376 64.4048 34.7574 64.093 34.6683C63.5762 34.499 63.144 34.3342 62.7965 34.1738C62.449 34.0134 62.1861 33.8129 62.0079 33.5723C61.8386 33.3228 61.754 33.0065 61.754 32.6233C61.754 32.16 61.8698 31.7635 62.1015 31.4338C62.3421 31.0952 62.6718 30.8323 63.0905 30.6452C63.5183 30.4581 64.0172 30.3645 64.5875 30.3645C65.0865 30.3645 65.5588 30.4447 66.0043 30.6051C66.3722 30.7302 66.7128 30.9222 67.026 31.1809C67.1425 31.2772 67.1621 31.4456 67.0811 31.5732L66.6851 32.1965C66.5851 32.3538 66.3721 32.39 66.218 32.2852C65.9634 32.1121 65.7184 31.9798 65.483 31.8882C65.1622 31.7546 64.837 31.6877 64.5073 31.6877C64.3202 31.6877 64.142 31.71 63.9727 31.7546C63.8123 31.7991 63.6786 31.8749 63.5717 31.9818C63.4737 32.0798 63.4247 32.2224 63.4247 32.4095C63.4247 32.5788 63.4692 32.7124 63.5584 32.8105C63.6564 32.8996 63.7989 32.9798 63.9861 33.051C64.1821 33.1223 64.4182 33.2025 64.6944 33.2916C65.2558 33.452 65.7281 33.6169 66.1112 33.7862C66.5033 33.9555 66.7973 34.1649 66.9933 34.4143C67.1894 34.6549 67.2874 34.9891 67.2874 35.4168C67.2874 36.1118 67.0334 36.6553 66.5255 37.0474C66.0176 37.4395 65.336 37.6355 64.4806 37.6355Z" fill="white"/>
</g>
<defs>
<filter id="filter0_dddd_1_7" x="0.352051" y="0" width="86" height="105" filterUnits="userSpaceOnUse" color-interpolation-filters="sRGB">
<feFlood flood-opacity="0" result="BackgroundImageFix"/>
<feColorMatrix in="SourceAlpha" type="matrix" values="0 0 0 0 0 0 0 0 0 0 0 0 0 0 0 0 0 0 127 0" result="hardAlpha"/>
<feOffset dy="2"/>
<feGaussianBlur stdDeviation="2"/>
<feColorMatrix type="matrix" values="0 0 0 0 0 0 0 0 0 0 0 0 0 0 0 0 0 0 0.1 0"/>
<feBlend mode="normal" in2="BackgroundImageFix" result="effect1_dropShadow_1_7"/>
<feColorMatrix in="SourceAlpha" type="matrix" values="0 0 0 0 0 0 0 0 0 0 0 0 0 0 0 0 0 0 127 0" result="hardAlpha"/>
<feOffset dy="7"/>
<feGaussianBlur stdDeviation="3.5"/>
<feColorMatrix type="matrix" values="0 0 0 0 0 0 0 0 0 0 0 0 0 0 0 0 0 0 0.09 0"/>
<feBlend mode="normal" in2="effect1_dropShadow_1_7" result="effect2_dropShadow_1_7"/>
<feColorMatrix in="SourceAlpha" type="matrix" values="0 0 0 0 0 0 0 0 0 0 0 0 0 0 0 0 0 0 127 0" result="hardAlpha"/>
<feOffset dy="16"/>
<feGaussianBlur stdDeviation="5"/>
<feColorMatrix type="matrix" values="0 0 0 0 0 0 0 0 0 0 0 0 0 0 0 0 0 0 0.05 0"/>
<feBlend mode="normal" in2="effect2_dropShadow_1_7" result="effect3_dropShadow_1_7"/>
<feColorMatrix in="SourceAlpha" type="matrix" values="0 0 0 0 0 0 0 0 0 0 0 0 0 0 0 0 0 0 127 0" result="hardAlpha"/>
<feOffset dy="28"/>
<feGaussianBlur stdDeviation="5.5"/>
<feColorMatrix type="matrix" values="0 0 0 0 0 0 0 0 0 0 0 0 0 0 0 0 0 0 0.01 0"/>
<feBlend mode="normal" in2="effect3_dropShadow_1_7" result="effect4_dropShadow_1_7"/>
<feBlend mode="normal" in="SourceGraphic" in2="effect4_dropShadow_1_7" result="shape"/>
</filter>
<linearGradient id="paint0_linear_1_7" x1="11.3521" y1="2" x2="88.5696" y2="32.1631" gradientUnits="userSpaceOnUse">
<stop stop-color="#FB923C"/>
<stop offset="0.5" stop-color="#EC4899"/>
<stop offset="1" stop-color="#9333EA"/>
</linearGradient>
<linearGradient id="paint1_linear_1_7" x1="11.3521" y1="2" x2="75.3521" y2="66" gradientUnits="userSpaceOnUse">
<stop stop-color="#ABFF77"/>
<stop offset="0.509077" stop-color="#ABFF77" stop-opacity="0"/>
</linearGradient>
</defs>
</svg>
