<svg width="64" height="13" viewBox="0 0 64 13" fill="none" xmlns="http://www.w3.org/2000/svg">
<path d="M0.416051 10V0.199999H1.53605L5.61005 6.906H4.88205L8.95605 0.199999H10.0761V10H8.46605V3.028L8.83005 3.126L5.80605 8.096H4.68605L1.66205 3.126L2.02605 3.028V10H0.416051ZM15.1132 10.14C14.4412 10.14 13.8345 9.99067 13.2932 9.692C12.7612 9.384 12.3365 8.964 12.0192 8.432C11.7112 7.9 11.5572 7.30267 11.5572 6.64C11.5572 5.97733 11.7112 5.38467 12.0192 4.862C12.3272 4.33 12.7425 3.91 13.2652 3.602C13.7972 3.294 14.3852 3.14 15.0292 3.14C15.6545 3.14 16.2052 3.28467 16.6812 3.574C17.1665 3.86333 17.5445 4.26 17.8152 4.764C18.0952 5.268 18.2352 5.842 18.2352 6.486C18.2352 6.598 18.2259 6.71467 18.2072 6.836C18.1979 6.948 18.1792 7.074 18.1512 7.214H12.6352V5.954H17.3532L16.7792 6.458C16.7605 6.04733 16.6812 5.702 16.5412 5.422C16.4012 5.142 16.2005 4.92733 15.9392 4.778C15.6872 4.62867 15.3745 4.554 15.0012 4.554C14.6092 4.554 14.2685 4.638 13.9792 4.806C13.6899 4.974 13.4659 5.212 13.3072 5.52C13.1485 5.81867 13.0692 6.178 13.0692 6.598C13.0692 7.018 13.1532 7.38667 13.3212 7.704C13.4892 8.02133 13.7272 8.26867 14.0352 8.446C14.3432 8.614 14.6979 8.698 15.0992 8.698C15.4445 8.698 15.7619 8.63733 16.0512 8.516C16.3499 8.39467 16.6019 8.21733 16.8072 7.984L17.7872 8.978C17.4605 9.36067 17.0639 9.65 16.5972 9.846C16.1305 10.042 15.6359 10.14 15.1132 10.14ZM19.4697 10V3.28H21.0097V10H19.4697ZM23.9357 10V5.996C23.9357 5.548 23.7957 5.20267 23.5157 4.96C23.2357 4.708 22.8904 4.582 22.4797 4.582C22.1997 4.582 21.9477 4.638 21.7237 4.75C21.5091 4.862 21.3364 5.02533 21.2057 5.24C21.0751 5.44533 21.0097 5.69733 21.0097 5.996L20.4077 5.66C20.4077 5.14667 20.5197 4.70333 20.7437 4.33C20.9677 3.95667 21.2711 3.66733 21.6537 3.462C22.0364 3.24733 22.4657 3.14 22.9417 3.14C23.4177 3.14 23.8471 3.24267 24.2297 3.448C24.6124 3.65333 24.9157 3.94267 25.1397 4.316C25.3637 4.68933 25.4757 5.13733 25.4757 5.66V10H23.9357ZM28.4017 10V5.996C28.4017 5.548 28.2617 5.20267 27.9817 4.96C27.7017 4.708 27.3564 4.582 26.9457 4.582C26.6751 4.582 26.4277 4.638 26.2037 4.75C25.9797 4.862 25.8024 5.02533 25.6717 5.24C25.5411 5.44533 25.4757 5.69733 25.4757 5.996L24.6077 5.66C24.6544 5.14667 24.8037 4.70333 25.0557 4.33C25.3077 3.95667 25.6297 3.66733 26.0217 3.462C26.4231 3.24733 26.8617 3.14 27.3377 3.14C27.8231 3.14 28.2617 3.24267 28.6537 3.448C29.0457 3.65333 29.3584 3.94267 29.5917 4.316C29.8251 4.68933 29.9417 5.13733 29.9417 5.66V10H28.4017ZM34.6503 10.14C33.9783 10.14 33.3716 9.99067 32.8303 9.692C32.2983 9.384 31.8736 8.964 31.5563 8.432C31.2483 7.9 31.0943 7.30267 31.0943 6.64C31.0943 5.97733 31.2483 5.38467 31.5563 4.862C31.8643 4.33 32.2796 3.91 32.8023 3.602C33.3343 3.294 33.9223 3.14 34.5663 3.14C35.1917 3.14 35.7423 3.28467 36.2183 3.574C36.7036 3.86333 37.0816 4.26 37.3523 4.764C37.6323 5.268 37.7723 5.842 37.7723 6.486C37.7723 6.598 37.763 6.71467 37.7443 6.836C37.735 6.948 37.7163 7.074 37.6883 7.214H32.1723V5.954H36.8903L36.3163 6.458C36.2977 6.04733 36.2183 5.702 36.0783 5.422C35.9383 5.142 35.7377 4.92733 35.4763 4.778C35.2243 4.62867 34.9116 4.554 34.5383 4.554C34.1463 4.554 33.8056 4.638 33.5163 4.806C33.227 4.974 33.003 5.212 32.8443 5.52C32.6856 5.81867 32.6063 6.178 32.6063 6.598C32.6063 7.018 32.6903 7.38667 32.8583 7.704C33.0263 8.02133 33.2643 8.26867 33.5723 8.446C33.8803 8.614 34.235 8.698 34.6363 8.698C34.9817 8.698 35.299 8.63733 35.5883 8.516C35.887 8.39467 36.139 8.21733 36.3443 7.984L37.3243 8.978C36.9977 9.36067 36.601 9.65 36.1343 9.846C35.6676 10.042 35.173 10.14 34.6503 10.14ZM41.2048 10.14C40.8315 10.14 40.4722 10.0933 40.1268 10C39.7815 9.89733 39.4642 9.75733 39.1748 9.58C38.8855 9.39333 38.6335 9.16933 38.4188 8.908L39.3988 7.928C39.6322 8.19867 39.8982 8.404 40.1968 8.544C40.5048 8.67467 40.8502 8.74 41.2328 8.74C41.5782 8.74 41.8395 8.68867 42.0168 8.586C42.1942 8.48333 42.2828 8.334 42.2828 8.138C42.2828 7.93267 42.1988 7.774 42.0308 7.662C41.8628 7.55 41.6435 7.45667 41.3728 7.382C41.1115 7.298 40.8315 7.214 40.5328 7.13C40.2435 7.046 39.9635 6.934 39.6928 6.794C39.4315 6.64467 39.2168 6.444 39.0488 6.192C38.8808 5.94 38.7968 5.61333 38.7968 5.212C38.7968 4.78267 38.8948 4.414 39.0908 4.106C39.2962 3.798 39.5808 3.56 39.9448 3.392C40.3182 3.224 40.7615 3.14 41.2748 3.14C41.8162 3.14 42.2922 3.238 42.7028 3.434C43.1228 3.62067 43.4728 3.90533 43.7528 4.288L42.7728 5.268C42.5768 5.02533 42.3528 4.84333 42.1008 4.722C41.8488 4.60067 41.5595 4.54 41.2328 4.54C40.9248 4.54 40.6868 4.58667 40.5188 4.68C40.3508 4.77333 40.2668 4.90867 40.2668 5.086C40.2668 5.27267 40.3508 5.41733 40.5188 5.52C40.6868 5.62267 40.9015 5.71133 41.1628 5.786C41.4335 5.86067 41.7135 5.94467 42.0028 6.038C42.3015 6.122 42.5815 6.24333 42.8428 6.402C43.1135 6.55133 43.3328 6.75667 43.5008 7.018C43.6688 7.27 43.7528 7.60133 43.7528 8.012C43.7528 8.66533 43.5242 9.18333 43.0668 9.566C42.6095 9.94867 41.9888 10.14 41.2048 10.14ZM46.1985 10.14C45.8998 10.14 45.6525 10.042 45.4565 9.846C45.2698 9.64067 45.1765 9.39333 45.1765 9.104C45.1765 8.80533 45.2698 8.558 45.4565 8.362C45.6525 8.166 45.8998 8.068 46.1985 8.068C46.4971 8.068 46.7398 8.166 46.9265 8.362C47.1225 8.558 47.2205 8.80533 47.2205 9.104C47.2205 9.39333 47.1225 9.64067 46.9265 9.846C46.7398 10.042 46.4971 10.14 46.1985 10.14ZM51.6506 12.94C50.9412 12.94 50.3206 12.8093 49.7886 12.548C49.2566 12.296 48.8272 11.9367 48.5006 11.47L49.5086 10.462C49.7792 10.798 50.0872 11.05 50.4326 11.218C50.7779 11.386 51.1932 11.47 51.6786 11.47C52.2852 11.47 52.7659 11.3113 53.1206 10.994C53.4752 10.686 53.6526 10.2613 53.6526 9.72V8.068L53.9186 6.584L53.6526 5.086V3.28H55.1926V9.72C55.1926 10.364 55.0432 10.924 54.7446 11.4C54.4459 11.8853 54.0306 12.2633 53.4986 12.534C52.9666 12.8047 52.3506 12.94 51.6506 12.94ZM51.5806 9.86C50.9832 9.86 50.4419 9.71533 49.9566 9.426C49.4806 9.12733 49.1026 8.72133 48.8226 8.208C48.5519 7.69467 48.4166 7.12067 48.4166 6.486C48.4166 5.85133 48.5519 5.282 48.8226 4.778C49.1026 4.274 49.4806 3.87733 49.9566 3.588C50.4419 3.28933 50.9832 3.14 51.5806 3.14C52.1126 3.14 52.5792 3.24733 52.9806 3.462C53.3819 3.67667 53.6946 3.97533 53.9186 4.358C54.1426 4.73133 54.2546 5.17 54.2546 5.674V7.326C54.2546 7.82067 54.1379 8.25933 53.9046 8.642C53.6806 9.02467 53.3679 9.32333 52.9666 9.538C52.5652 9.75267 52.1032 9.86 51.5806 9.86ZM51.8886 8.404C52.2619 8.404 52.5886 8.32467 52.8686 8.166C53.1486 8.00733 53.3632 7.788 53.5126 7.508C53.6712 7.21867 53.7506 6.88267 53.7506 6.5C53.7506 6.11733 53.6712 5.786 53.5126 5.506C53.3632 5.21667 53.1486 4.99267 52.8686 4.834C52.5886 4.67533 52.2619 4.596 51.8886 4.596C51.5152 4.596 51.1839 4.67533 50.8946 4.834C50.6146 4.99267 50.3952 5.21667 50.2366 5.506C50.0779 5.786 49.9986 6.11733 49.9986 6.5C49.9986 6.87333 50.0779 7.20467 50.2366 7.494C50.3952 7.78333 50.6146 8.00733 50.8946 8.166C51.1839 8.32467 51.5152 8.404 51.8886 8.404ZM59.7033 12.94C58.994 12.94 58.3733 12.8093 57.8413 12.548C57.3093 12.296 56.88 11.9367 56.5533 11.47L57.5613 10.462C57.832 10.798 58.14 11.05 58.4853 11.218C58.8306 11.386 59.246 11.47 59.7313 11.47C60.338 11.47 60.8186 11.3113 61.1733 10.994C61.528 10.686 61.7053 10.2613 61.7053 9.72V8.068L61.9713 6.584L61.7053 5.086V3.28H63.2453V9.72C63.2453 10.364 63.096 10.924 62.7973 11.4C62.4987 11.8853 62.0833 12.2633 61.5513 12.534C61.0193 12.8047 60.4033 12.94 59.7033 12.94ZM59.6333 9.86C59.036 9.86 58.4946 9.71533 58.0093 9.426C57.5333 9.12733 57.1553 8.72133 56.8753 8.208C56.6046 7.69467 56.4693 7.12067 56.4693 6.486C56.4693 5.85133 56.6046 5.282 56.8753 4.778C57.1553 4.274 57.5333 3.87733 58.0093 3.588C58.4946 3.28933 59.036 3.14 59.6333 3.14C60.1653 3.14 60.632 3.24733 61.0333 3.462C61.4346 3.67667 61.7473 3.97533 61.9713 4.358C62.1953 4.73133 62.3073 5.17 62.3073 5.674V7.326C62.3073 7.82067 62.1907 8.25933 61.9573 8.642C61.7333 9.02467 61.4207 9.32333 61.0193 9.538C60.618 9.75267 60.156 9.86 59.6333 9.86ZM59.9413 8.404C60.3147 8.404 60.6413 8.32467 60.9213 8.166C61.2013 8.00733 61.416 7.788 61.5653 7.508C61.724 7.21867 61.8033 6.88267 61.8033 6.5C61.8033 6.11733 61.724 5.786 61.5653 5.506C61.416 5.21667 61.2013 4.99267 60.9213 4.834C60.6413 4.67533 60.3147 4.596 59.9413 4.596C59.568 4.596 59.2366 4.67533 58.9473 4.834C58.6673 4.99267 58.448 5.21667 58.2893 5.506C58.1306 5.786 58.0513 6.11733 58.0513 6.5C58.0513 6.87333 58.1306 7.20467 58.2893 7.494C58.448 7.78333 58.6673 8.00733 58.9473 8.166C59.2366 8.32467 59.568 8.404 59.9413 8.404Z" fill="white" fill-opacity="0.8"/>
</svg>
