<svg width="33" height="33" viewBox="0 0 33 33" fill="none" xmlns="http://www.w3.org/2000/svg">
<g clip-path="url(#clip0_1_112)">
<path d="M10.8858 21.8476L3.9996 19.3101C3.80972 19.2401 3.64589 19.1135 3.53017 18.9474C3.41445 18.7813 3.35242 18.5838 3.35242 18.3814C3.35242 18.179 3.41445 17.9815 3.53017 17.8154C3.64589 17.6493 3.80972 17.5227 3.9996 17.4526L10.8858 14.9151L13.4234 8.0289C13.4934 7.83902 13.62 7.67518 13.7861 7.55947C13.9522 7.44375 14.1497 7.38171 14.3521 7.38171C14.5545 7.38171 14.752 7.44375 14.9181 7.55947C15.0842 7.67518 15.2108 7.83902 15.2809 8.0289L17.8183 14.9151L24.7046 17.4526C24.8945 17.5227 25.0583 17.6493 25.174 17.8154C25.2897 17.9815 25.3518 18.179 25.3518 18.3814C25.3518 18.5838 25.2897 18.7813 25.174 18.9474C25.0583 19.1135 24.8945 19.2401 24.7046 19.3101L17.8183 21.8476L15.2809 28.7339C15.2108 28.9238 15.0842 29.0876 14.9181 29.2033C14.752 29.319 14.5545 29.3811 14.3521 29.3811C14.1497 29.3811 13.9522 29.319 13.7861 29.2033C13.62 29.0876 13.4934 28.9238 13.4234 28.7339L10.8858 21.8476Z" stroke="#ABFF77" stroke-width="2" stroke-linecap="round" stroke-linejoin="round"/>
<path d="M22.3521 2.38141V8.38141" stroke="#ABFF77" stroke-width="2" stroke-linecap="round" stroke-linejoin="round"/>
<path d="M28.3521 9.38141V13.3814" stroke="#ABFF77" stroke-width="2" stroke-linecap="round" stroke-linejoin="round"/>
<path d="M19.3521 5.38141H25.3521" stroke="#ABFF77" stroke-width="2" stroke-linecap="round" stroke-linejoin="round"/>
<path d="M26.3521 11.3814H30.3521" stroke="#ABFF77" stroke-width="2" stroke-linecap="round" stroke-linejoin="round"/>
</g>
<defs>
<clipPath id="clip0_1_112">
<rect width="32" height="32" fill="white" transform="translate(0.352051 0.381409)"/>
</clipPath>
</defs>
</svg>
